<svg width="57" height="47" viewBox="0 0 57 47" fill="none" xmlns="http://www.w3.org/2000/svg">
<path d="M47.5838 4.32376C44.0925 2.54126 40.3125 1.24751 36.375 0.50001C36.3405 0.498801 36.3061 0.505897 36.2744 0.520799C36.2426 0.535701 36.2143 0.558047 36.1913 0.586261C35.7188 1.53501 35.1675 2.77126 34.8 3.72001C30.6236 3.03001 26.3764 3.03001 22.2 3.72001C21.8325 2.74251 21.2813 1.53501 20.7825 0.586261C20.7563 0.528761 20.6775 0.50001 20.5988 0.50001C16.6613 1.24751 12.9075 2.54126 9.39 4.32376C9.36375 4.32376 9.3375 4.35251 9.31125 4.38126C2.17125 16.0825 0.202503 27.4675 1.17375 38.7375C1.17375 38.795 1.2 38.8525 1.2525 38.8813C5.9775 42.6763 10.5188 44.9763 15.0075 46.5C15.0863 46.5288 15.165 46.5 15.1913 46.4425C16.2413 44.8613 17.1863 43.1938 18 41.44C18.0525 41.325 18 41.21 17.895 41.1813C16.3988 40.5488 14.9813 39.8013 13.59 38.9388C13.485 38.8813 13.485 38.7088 13.5638 38.6225C13.8525 38.3925 14.1413 38.1338 14.43 37.9038C14.4825 37.8463 14.5613 37.8463 14.6138 37.875C23.6438 42.3888 33.3825 42.3888 42.3075 37.875C42.36 37.8463 42.4388 37.8463 42.4913 37.9038C42.78 38.1625 43.0687 38.3925 43.3575 38.6513C43.4625 38.7375 43.4625 38.91 43.3312 38.9675C41.9662 39.8588 40.5225 40.5775 39.0263 41.21C38.9213 41.2388 38.895 41.3825 38.9213 41.4688C39.7613 43.2225 40.7063 44.89 41.73 46.4713C41.8088 46.5 41.8875 46.5288 41.9663 46.5C46.4813 44.9763 51.0225 42.6763 55.7475 38.8813C55.8 38.8525 55.8262 38.795 55.8262 38.7375C56.9813 25.7138 53.91 14.415 47.6887 4.38126C47.6625 4.35251 47.6362 4.32376 47.5838 4.32376ZM19.365 31.8663C16.6613 31.8663 14.4038 29.135 14.4038 25.7713C14.4038 22.4075 16.6088 19.6763 19.365 19.6763C22.1475 19.6763 24.3525 22.4363 24.3263 25.7713C24.3263 29.135 22.1213 31.8663 19.365 31.8663ZM37.6613 31.8663C34.9575 31.8663 32.7 29.135 32.7 25.7713C32.7 22.4075 34.905 19.6763 37.6613 19.6763C40.4438 19.6763 42.6488 22.4363 42.6225 25.7713C42.6225 29.135 40.4438 31.8663 37.6613 31.8663Z" fill="#04C3FF"/>
</svg>
