<svg width="55" height="50" viewBox="0 0 55 50" fill="none" xmlns="http://www.w3.org/2000/svg">
<path d="M54.9575 6.25C52.9362 7.25625 50.7575 7.9175 48.5 8.23375C50.81 6.71 52.595 4.295 53.435 1.39125C51.2562 2.82875 48.8412 3.835 46.295 4.41C44.2212 1.9375 41.3075 0.5 38 0.5C31.8312 0.5 26.7912 6.02 26.7912 12.8337C26.7912 13.8112 26.8962 14.76 27.08 15.6513C17.735 15.1338 9.41373 10.2175 3.87498 2.77125C2.90373 4.5825 2.35248 6.71 2.35248 8.9525C2.35248 13.2362 4.32123 17.0312 7.36623 19.1875C5.50248 19.1875 3.76998 18.6125 2.24748 17.75V17.8362C2.24748 23.8162 6.13248 28.8187 11.2775 29.94C9.62564 30.4351 7.89148 30.504 6.21123 30.1413C6.9242 32.5921 8.32051 34.7367 10.2039 36.2734C12.0873 37.8102 14.363 38.6619 16.7112 38.7088C12.7308 42.16 7.79672 44.0255 2.71998 43.9987C1.82748 43.9987 0.93498 43.9412 0.0424805 43.8262C5.02998 47.3337 10.9625 49.375 17.315 49.375C38 49.375 49.3662 30.5725 49.3662 14.2712C49.3662 13.725 49.3662 13.2075 49.34 12.6612C51.545 10.9362 53.435 8.75125 54.9575 6.25Z" fill="#04C3FF"/>
</svg>
